<?xml version="1.0" standalone="no"?><!DOCTYPE svg PUBLIC "-//W3C//DTD SVG 1.1//EN" "http://www.w3.org/Graphics/SVG/1.1/DTD/svg11.dtd"><svg t="1740898634191" class="icon" viewBox="0 0 1024 1024" version="1.1" xmlns="http://www.w3.org/2000/svg" p-id="30422" xmlns:xlink="http://www.w3.org/1999/xlink" width="200" height="200"><path d="M979 120.6c-9.6-36.4-38.2-65-74.6-74.8C856.6 33 782 17.8 694.8 16L1008 329.6c-1.6-87-16.4-161.2-29-209z m-934 782.8c9.6 36.4 38.2 65 74.6 74.8 47.8 12.8 122.4 28 209.6 29.8L16 694.4c1.6 87 16.4 161.2 29 209zM24.4 566.8L456.8 1000c265-38.8 497.6-237.4 543-542.8L567.2 24C302.2 62.8 69.6 261.4 24.4 566.8z m634.6-247.2c6.2-6.2 16.4-6.2 22.6 0l22.6 22.6c6.2 6.2 6.2 16.4 0 22.6l-56.6 56.6 56.6 56.6c6.2 6.2 6.2 16.4 0 22.6l-22.6 22.6c-6.2 6.2-16.4 6.2-22.6 0l-56.6-56.6-45.2 45.4 56.6 56.6c6.2 6.2 6.2 16.4 0 22.6l-22.6 22.6c-6.2 6.2-16.4 6.2-22.6 0L512 557.2l-45.2 45.2 56.6 56.6c6.2 6.2 6.2 16.4 0 22.6l-22.6 22.6c-6.2 6.2-16.4 6.2-22.6 0l-56.6-56.6-56.6 56.6c-6.2 6.2-16.4 6.2-22.6 0l-22.6-22.6c-6.2-6.2-6.2-16.4 0-22.6l56.6-56.6-56.6-56.4c-6.2-6.2-6.2-16.4 0-22.6l22.6-22.6c6.2-6.2 16.4-6.2 22.6 0l56.6 56.6 45.2-45.2-56.6-56.6c-6.2-6.2-6.2-16.4 0-22.6l22.6-22.6c6.2-6.2 16.4-6.2 22.6 0l56.6 56.6 45.2-45.2-56.6-56.6c-6.2-6.2-6.2-16.4 0-22.6l22.6-22.6c6.2-6.2 16.4-6.2 22.6 0l56.6 56.6 56.6-57z" fill="currentColor" p-id="30423"></path></svg>