<?xml version="1.0" standalone="no"?><!DOCTYPE svg PUBLIC "-//W3C//DTD SVG 1.1//EN" "http://www.w3.org/Graphics/SVG/1.1/DTD/svg11.dtd"><svg t="1740897662410" class="icon" viewBox="0 0 1024 1024" version="1.1" xmlns="http://www.w3.org/2000/svg" p-id="8840" xmlns:xlink="http://www.w3.org/1999/xlink" width="200" height="200"><path d="M1009.9 445.2l-0.1-0.1c-15.5-25.9-36.9-38.1-69.6-39.6h-0.8c-10.8-0.2-209.3-0.1-302.7 0l19.3-54.8c0.1-0.1 0.1-0.3 0.2-0.5 12.9-38.5 19.2-88 19.2-151.3 0-26-2.3-52.4-6.7-78.3-0.1-0.6-0.2-1.3-0.3-1.8l-3.8-16.1c-9.8-43.4-45.9-73.8-88-73.8-46.5 0-80.3 40.8-80.4 97.1l-0.1 5.7v2.2c0 1.1 0.1 2.3 0.2 3.5v1.9c-3.6 134.4-85.4 246.2-208.3 284.6-13.9 4.3-23.5 17.3-23.5 31.9v505.7c0 18.5 14.9 33.4 33.4 33.4h556.3c10.1 0 25.4-1.5 40.9-13.9 12-8.7 23.9-18.5 29.4-33.2 0.5-1.1 0.8-2.3 1-3.5 12.1-48.9 91.3-396.3 98.1-438.4 0.2-1.4 0.3-2.6 0.3-4 0.8-19.9-4-39.6-14-56.7zM0 440.4h196.6v538H0z" fill="currentColor" p-id="8841"></path></svg>