<?xml version="1.0" standalone="no"?><!DOCTYPE svg PUBLIC "-//W3C//DTD SVG 1.1//EN" "http://www.w3.org/Graphics/SVG/1.1/DTD/svg11.dtd"><svg t="1740898759796" class="icon" viewBox="0 0 1024 1024" version="1.1" xmlns="http://www.w3.org/2000/svg" p-id="34446" xmlns:xlink="http://www.w3.org/1999/xlink" width="200" height="200"><path d="M658.8 920.9c-101.6 0-184.2-82.6-184.2-184.2V281.6c0-61.1-49.8-110.9-110.9-110.9s-110.9 49.8-110.9 110.9v518c0 20.3-16.4 36.7-36.7 36.7s-36.7-16.4-36.7-36.7v-518C179.4 180 262 97.4 363.6 97.4S547.9 180 547.9 281.6v455.1c0 61.1 49.8 110.9 110.9 110.9 61.1 0 110.9-49.8 110.9-110.9v-517c0-20.3 16.4-36.7 36.7-36.7s36.7 16.4 36.7 36.7v517c-0.1 101.5-82.7 184.2-184.3 184.2z" fill="currentColor" p-id="34447"></path><path d="M888.3 261.5H724.4c-16.9 0-32.2-10.2-38.7-25.9a41.9 41.9 0 0 1 9.1-45.7l82-82c7.9-7.9 18.5-12.3 29.6-12.3 11.1 0 21.8 4.4 29.6 12.3l81.9 82c12 12 15.6 30 9.1 45.7s-21.7 25.9-38.7 25.9zM216.1 923.4c-11.1 0-21.8-4.4-29.6-12.3l-82-82c-12-12-15.6-30-9.1-45.7 6.5-15.7 21.8-25.9 38.7-25.9H298c16.9 0 32.2 10.2 38.7 25.9s2.9 33.7-9.1 45.7l-81.9 82c-7.8 7.9-18.4 12.3-29.6 12.3z" fill="currentColor" p-id="34448"></path></svg>