<?xml version="1.0" standalone="no"?><!DOCTYPE svg PUBLIC "-//W3C//DTD SVG 1.1//EN" "http://www.w3.org/Graphics/SVG/1.1/DTD/svg11.dtd"><svg t="1742429597259" class="icon" viewBox="0 0 1024 1024" version="1.1" xmlns="http://www.w3.org/2000/svg" p-id="1552" xmlns:xlink="http://www.w3.org/1999/xlink" width="200" height="200"><path d="M845.333 53.993H178.667c-46.021 0-83.333 37.313-83.333 83.333v749.349c0 46.021 37.313 83.333 83.333 83.333h666.667c46.021 0 83.333-37.313 83.333-83.333V137.326c-0.001-46.021-37.313-83.333-83.334-83.333z m-191.468 433.43v59.55h-104.99l-0.631 0.631v32.897h105.621v59.55H548.244v74.117h-72.499v-74.117H370.744v-59.55h105.001v-32.897l-0.62-0.631H370.744v-59.55h82.499L331.366 309.832h82.499L512 459.958l98.124-150.126h82.499L570.746 487.423h83.119z" fill="currentColor" p-id="1553"></path></svg>