<?xml version="1.0" standalone="no"?><!DOCTYPE svg PUBLIC "-//W3C//DTD SVG 1.1//EN" "http://www.w3.org/Graphics/SVG/1.1/DTD/svg11.dtd"><svg t="1740898660832" class="icon" viewBox="0 0 1024 1024" version="1.1" xmlns="http://www.w3.org/2000/svg" p-id="31621" xmlns:xlink="http://www.w3.org/1999/xlink" width="200" height="200"><path d="M732.48 394.496a349.504 349.504 0 0 0 137.344-28.224q65.536-2.112 65.536 56.704c0 58.88-92.544 59.968-131.584 71.872q-14.464 2.496-92.864 21.056a42.624 42.624 0 0 1-46.464-13.312c-24.064-22.4-48.512-55.36-55.104-53.056l-49.664 139.072q129.664 25.6 151.232 56.576 10.432 37.696 65.984 268.288a49.216 49.216 0 0 1-36.096 66.56c-48.768 15.36-73.792 3.456-84.864-40.448q-11.072-43.84-51.2-191.424a189.376 189.376 0 0 0-116.544-24.512 476.864 476.864 0 0 0-67.52 129.216c-6.784 10.368-25.216 75.008-108.16 37.504q-83.2-37.504-164.096-80.896-78.08-42.112-39.04-101.568c39.04-59.456 132.736 15.232 156.608 24.32s45.248 29.632 56.768-4.672q11.52-34.304 94.336-299.648 4.736-32-16.704-23.296t-48.512 67.776L283.136 573.952a55.296 55.296 0 1 1-84.352-71.424 866.496 866.496 0 0 1 130.88-190.592 294.912 294.912 0 0 1 402.816 82.56zM601.088 32a105.536 105.536 0 1 1-105.408 105.536A105.472 105.472 0 0 1 601.088 32z" fill="currentColor" p-id="31622"></path></svg>