<?xml version="1.0" standalone="no"?><!DOCTYPE svg PUBLIC "-//W3C//DTD SVG 1.1//EN" "http://www.w3.org/Graphics/SVG/1.1/DTD/svg11.dtd"><svg t="1740897972860" class="icon" viewBox="0 0 1024 1024" version="1.1" xmlns="http://www.w3.org/2000/svg" p-id="10719" xmlns:xlink="http://www.w3.org/1999/xlink" width="200" height="200"><path d="M789.333333 256A64 64 0 0 1 853.333333 320v469.333333a64 64 0 0 1-128 0v-469.333333A64 64 0 0 1 789.333333 256z m-256 213.333333a64 64 0 0 1 64 64v256a64 64 0 0 1-128 0v-256a64 64 0 0 1 64-64z m-256 170.666667A64 64 0 0 1 341.333333 704v85.333333a64 64 0 0 1-128 0v-85.333333A64 64 0 0 1 277.333333 640z" fill="currentColor" p-id="10720"></path></svg>