<?xml version="1.0" standalone="no"?><!DOCTYPE svg PUBLIC "-//W3C//DTD SVG 1.1//EN" "http://www.w3.org/Graphics/SVG/1.1/DTD/svg11.dtd"><svg t="1740898393246" class="icon" viewBox="0 0 1024 1024" version="1.1" xmlns="http://www.w3.org/2000/svg" p-id="22234" xmlns:xlink="http://www.w3.org/1999/xlink" width="200" height="200"><path d="M673 348.2c8.9-0.9 18-1.4 27.2-1.4 71.4 0 136.3 28.9 184.7 76 17.5-31.9 27.6-68.9 27.6-108.4-0.1-120.6-93.6-218.4-209-218.4-74.8 0-140.3 41.1-177.2 102.8 62.8 32.3 114.3 84.8 146.7 149.4z m-25.6-192.6c21 0 38 17.8 38 39.7 0 21.9-17 39.7-38 39.7s-38-17.8-38-39.7c0.1-22 17.1-39.7 38-39.7zM429.2 630.2c0-129.9 83.6-239.4 197.7-272.8-49.4-88.4-141-147.9-246-147.9C223.5 209.4 96 342.8 96 507.3s127.5 297.8 284.8 297.8c33.1 0 64.9-6 94.4-16.8-29.1-45.2-46-99.6-46-158.1zM304.8 448.7c-41.9 0-75.9-35.6-75.9-79.4 0-43.9 34-79.4 75.9-79.4 41.9 0 75.9 35.6 75.9 79.4 0.1 43.8-33.9 79.4-75.9 79.4z" fill="#00596d" p-id="22235"></path><path d="M700.2 391.9c-125.8 0-227.8 106.7-227.8 238.3 0 131.6 102 238.3 227.8 238.3C826 868.4 928 761.8 928 630.2c0-131.6-102-238.3-227.8-238.3z m-75.1 198.6c-31.5 0-57-26.7-57-59.6s25.5-59.6 57-59.6 57 26.7 57 59.6c-0.1 32.9-25.6 59.6-57 59.6zM504.3 825.9c-25.4 10.7-52.3 18.1-80.4 21.9 6.7 45.3 44.2 80.1 89.5 80.1 30.6 0 57.6-15.9 74-40.1-31.4-14.9-59.5-36.1-83.1-61.9z m-17.2 70.9c-10.5 0-19-8.9-19-19.9 0-11 8.5-19.9 19-19.9s19 8.9 19 19.9c0 11-8.5 19.9-19 19.9z" fill="#00596d" p-id="22236"></path></svg>