<?xml version="1.0" standalone="no"?><!DOCTYPE svg PUBLIC "-//W3C//DTD SVG 1.1//EN" "http://www.w3.org/Graphics/SVG/1.1/DTD/svg11.dtd"><svg t="1740898488594" class="icon" viewBox="0 0 1024 1024" version="1.1" xmlns="http://www.w3.org/2000/svg" p-id="26373" xmlns:xlink="http://www.w3.org/1999/xlink" width="200" height="200"><path d="M355.2 254.3h313.7c18.9 0 34.2-15.3 34.2-34.2v-137c0-10.6-8.6-19.1-19.1-19.1h-60c-10.6 0-19.1 8.5-19.1 19.1v54.5h-43.7V83.1c0-10.6-8.5-19.1-19.1-19.1h-60c-10.5 0-19.1 8.5-19.1 19.1v54.5h-43.7V83.1c0-10.6-8.5-19.1-19.1-19.1h-60c-10.6 0-19.1 8.5-19.1 19.1v137c-0.1 18.9 15.2 34.2 34.1 34.2zM306.7 789.1H722c10.6 0 20.6-4.9 27-13.3 6.5-8.4 8.7-19.3 6.1-29.5L653.4 354.7c-3.9-15.1-17.5-25.6-33.1-25.6h-212c-15.6 0-29.2 10.5-33.1 25.6L273.6 746.3c-2.7 10.3-0.4 21.2 6.1 29.5 6.4 8.4 16.4 13.3 27 13.3zM729.6 861.1H294.4c-18.9 0-34.2 15.3-34.2 34.2v30.5c0 18.9 15.3 34.2 34.2 34.2h435.3c18.9 0 34.2-15.3 34.2-34.2v-30.5c-0.1-18.9-15.4-34.2-34.3-34.2z" fill="#00596d" p-id="26374"></path></svg>