<?xml version="1.0" standalone="no"?><!DOCTYPE svg PUBLIC "-//W3C//DTD SVG 1.1//EN" "http://www.w3.org/Graphics/SVG/1.1/DTD/svg11.dtd"><svg t="1740898435148" class="icon" viewBox="0 0 1024 1024" version="1.1" xmlns="http://www.w3.org/2000/svg" p-id="23356" xmlns:xlink="http://www.w3.org/1999/xlink" width="200" height="200"><path d="M651.79648 306.8928C651.79648 171.29472 542.13632 61.44 406.8352 61.44c-6.18496 0-12.20608 0.45056-18.2272 0.90112H172.09344v0.45056H61.44V962.56h124.30336V551.54688h201.984c9.44128 1.1264 9.39008 0.78848 19.10784 0.78848 135.30112 0 244.96128-109.90592 244.96128-245.4528zM387.72736 425.0624h-202.0352V187.87328h202.0352c59.00288 2.816 113.14176 57.79456 113.14176 117.6064 0 59.82208-54.13888 116.71552-113.2032 119.58272h0.06144zM954.2656 741.00736c-3.98336-7.92576-14.7456-17.03936-14.7456-17.03936l-44.5952-121.42592c-9.27744-23.05024-36.4544-35.19488-48.39424-35.19488H612.46464c-11.9296 0-39.1168 12.14464-48.39424 35.19488L519.4752 723.968s-10.77248 9.1136-14.7456 17.1008c-3.98336 7.97696-8.2944 15.0528-8.2944 68.9152 0 52.51072 10.3936 71.168 22.76352 77.63968l9.7792 5.62176v48.7936c0 15.73888 3.64544 20.46976 18.45248 20.46976h33.09568c14.7456 0 24.68864 0.0512 24.68864-15.74912V899.3792h248.60672v47.39072c0 15.80032 9.89184 15.74912 24.64768 15.74912h33.08544c14.7456 0 18.45248-4.66944 18.45248-20.46976v-48.7936l9.7792-5.632c12.38016-6.4512 22.71232-25.11872 22.76352-77.62944 0-53.8624-4.3008-60.93824-8.2944-68.9152v-0.06144z m-375.3984-31.31392c1.82272-6.8608 14.19264-60.7232 19.72224-79.38048 2.21184-6.47168 16.896-25.64096 33.97632-24.576H826.368c17.12128-1.1264 31.76448 18.10432 34.02752 24.576 5.5296 18.66752 17.84832 72.51968 19.72224 79.38048 2.21184 8.15104-5.07904 7.41376-5.07904 7.41376H583.90528s-7.29088 0.73728-5.02784-7.41376zM876.43136 841.5232a35.6864 35.6864 0 0 1-33.06496-22.36416 36.78208 36.78208 0 0 1 7.72096-39.6288 35.23584 35.23584 0 0 1 38.94272-7.85408 36.33152 36.33152 0 0 1 21.97504 33.6384c0 19.90656-15.96416 36.20864-35.57376 36.20864z m-297.8816 0a35.6864 35.6864 0 0 1-33.06496-22.36416 36.78208 36.78208 0 0 1 7.72096-39.6288 35.23584 35.23584 0 0 1 38.94272-7.85408 36.33152 36.33152 0 0 1 21.98528 33.6384c0 19.90656-15.9744 36.20864-35.584 36.20864z" fill="#00596d" p-id="23357"></path></svg>