<?xml version="1.0" standalone="no"?><!DOCTYPE svg PUBLIC "-//W3C//DTD SVG 1.1//EN" "http://www.w3.org/Graphics/SVG/1.1/DTD/svg11.dtd"><svg t="1740897639084" class="icon" viewBox="0 0 1064 1024" version="1.1" xmlns="http://www.w3.org/2000/svg" p-id="7692" xmlns:xlink="http://www.w3.org/1999/xlink" width="207.8125" height="200"><path d="M1063.384615 537.127385C1063.384615 565.011692 1041.053538 587.500308 1013.523692 587.500308 1000.369231 587.500308 988.514462 582.301538 979.613538 573.912615L979.534769 573.991385 532.913231 122.840615 532.913231 122.801231 531.652923 121.580308 84.834462 573.006769 84.795077 573.006769C75.815385 581.986462 63.448615 587.500308 49.821538 587.500308 22.291692 587.500308 0 565.011692 0 537.127385 0 522.830769 5.868308 509.991385 15.320615 500.854154L495.734154 15.438769C504.792615 5.907692 517.553231 0 531.652923 0L531.692308 0C532.558769 0 533.464615 0.039385 534.331077 0.039385 534.449231 0.039385 534.606769 0.078769 534.724923 0.078769 535.473231 0.118154 536.221538 0.196923 536.969846 0.275692L537.127385 0.275692C549.336615 1.614769 560.206769 7.404308 568.123077 16.029538L568.162462 15.990154 764.297846 214.134154 764.297846 167.857231C764.297846 140.012308 786.589538 117.484308 814.158769 117.484308 841.649231 117.484308 863.980308 140.012308 863.980308 167.857231L863.980308 314.840615 1049.993846 502.784 1049.875692 502.902154C1058.185846 511.921231 1063.384615 523.854769 1063.384615 537.127385ZM531.652923 184.635077 984.576 630.153846 984.576 984.615385C984.576 1012.381538 941.371077 1024 913.841231 1024L827.037538 1024 827.037538 630.153846 630.114462 630.153846 630.114462 1024 149.504 1024C121.974154 1024 78.769231 1012.381538 78.769231 984.615385L78.769231 630.153846 99.682462 621.056 531.652923 184.635077ZM236.268308 827.076923 471.867077 827.392 471.867077 629.681231 236.268308 630.153846 236.268308 827.076923Z" p-id="7693" fill="#00596d"></path></svg>