<?xml version="1.0" standalone="no"?><!DOCTYPE svg PUBLIC "-//W3C//DTD SVG 1.1//EN" "http://www.w3.org/Graphics/SVG/1.1/DTD/svg11.dtd"><svg t="1740903427519" class="icon" viewBox="0 0 1025 1024" version="1.1" xmlns="http://www.w3.org/2000/svg" p-id="36569" xmlns:xlink="http://www.w3.org/1999/xlink" width="200.1953125" height="200"><path d="M227.328 522.752c0 162.816 132.608 295.424 295.424 295.424s295.424-132.608 295.424-295.424-132.096-295.936-294.912-295.936c-56.832 0-110.08 15.872-155.136 44.032l39.936 39.936C442.368 292.352 481.28 281.6 523.264 281.6c132.608 0 241.152 108.032 241.152 241.152s-108.032 241.152-241.152 241.152-241.152-108.544-241.152-241.152c0-41.984 10.752-80.896 29.184-115.2L271.36 367.616c-27.648 45.056-44.032 98.304-44.032 155.136z m147.968 0c0 81.408 66.048 147.968 147.968 147.968s147.456-66.56 147.456-147.968-66.048-147.968-147.968-147.968c-15.36 0-30.208 2.56-44.544 7.168l48.128 47.616c50.176 1.536 89.6 42.496 89.6 93.184 0 51.2-41.984 93.184-93.184 93.184-50.176 0-91.136-39.936-93.184-89.6l-48.128-47.616c-3.584 13.312-6.144 28.672-6.144 44.032z m-302.08 0c0 248.32 201.728 450.048 450.048 450.048s450.048-201.728 450.048-450.048-201.728-450.048-450.048-450.048c-84.48 0-163.84 23.552-231.424 64l39.936 39.936c56.832-31.744 121.856-49.664 191.488-49.664 218.112 0 395.776 177.664 395.776 395.776 0 218.112-177.664 395.776-395.776 395.776s-395.776-177.664-395.776-395.776c0-69.632 17.92-134.656 49.664-191.488l-39.936-39.936c-40.96 67.584-64 146.944-64 231.424z m-21.504-375.296L129.024 128l18.944-76.8 144.896 144.896-5.632 52.224 256.512 256.512c10.752 10.752 10.752 28.16 0 38.4-10.752 10.752-28.16 10.752-38.4 0L248.32 286.72l-52.224 5.632-144.384-144.896z" p-id="36570" fill="#00596d"></path></svg>